<svg width="368" height="298" viewBox="0 0 368 298" fill="none" xmlns="http://www.w3.org/2000/svg">
<path d="M184.028 25.507C184.58 25.507 185.028 25.0593 185.028 24.507V15.6167C185.028 14.3621 186.042 13.3709 187.26 13.409V13.409L187.269 13.4092C262.471 15.0853 323.147 75.7613 324.823 150.963L324.823 150.972C324.861 152.19 323.87 153.204 322.615 153.204H313.725C313.173 153.204 312.725 153.652 312.725 154.204C312.725 225.28 255.104 282.901 184.028 282.901C183.476 282.901 183.028 283.349 183.028 283.901V292.791C183.028 294.046 182.014 295.037 180.796 294.999L180.787 294.999C105.585 293.323 44.9094 232.647 43.2333 157.445L43.233 157.436C43.195 156.218 44.1862 155.204 45.4408 155.204H54.3873C54.9396 155.204 55.3873 154.756 55.3873 154.204C55.3873 83.1269 112.952 25.507 184.028 25.507Z" fill="#FFB26E" stroke="white" stroke-width="2" stroke-linecap="round" stroke-linejoin="round"/>
<path d="M183.128 289.134C182.396 289.134 181.665 289.078 180.933 289.021C168.161 287.896 158.37 276.924 158.595 264.095L158.82 250.478C158.933 243.613 161.915 237.086 167.035 232.529C172.099 227.971 178.908 225.776 185.66 226.395L188.136 226.62C195.057 227.296 201.359 230.84 205.522 236.411C209.686 242.038 211.262 249.184 209.855 255.992L207.154 269.384C204.847 280.975 194.719 289.134 183.128 289.134ZM182.171 275.067C187.517 275.573 192.356 271.916 193.481 266.57L196.182 253.179C196.801 250.14 196.126 247.158 194.325 244.682C192.525 242.263 189.88 240.744 186.898 240.462L184.422 240.237C181.496 239.956 178.626 240.912 176.432 242.882C174.181 244.907 172.943 247.665 172.887 250.647L172.662 264.263C172.493 269.89 176.713 274.617 182.171 275.067Z" fill="white" stroke="black" stroke-width="1.2" stroke-miterlimit="10" stroke-linecap="round" stroke-linejoin="round"/>
<path d="M244.572 141.431C251.324 149.534 259.708 161.688 260.889 173.335L287.617 168.721C282.102 149.196 272.874 134.904 263.14 124.551C260.552 124.889 255.094 126.014 250.705 130.178C246.316 134.454 244.966 138.787 244.572 141.431Z" fill="#FFB26E"/>
<path d="M102.046 64.6259C104.184 65.1323 171.143 85.8388 177.557 87.5831L167.148 111.441L93.4933 76.2733L93.437 70.8716" fill="#FFB26E"/>
<path d="M102.046 64.6259C104.184 65.1323 171.143 85.8388 177.557 87.5831L167.148 111.441L93.4933 76.2733L93.437 70.8716" stroke="black" stroke-width="1.2" stroke-miterlimit="10" stroke-linecap="round" stroke-linejoin="round"/>
<path d="M250.255 262.069C258.521 262.069 265.222 255.368 265.222 247.102C265.222 238.836 258.521 232.135 250.255 232.135C241.989 232.135 235.288 238.836 235.288 247.102C235.288 255.368 241.989 262.069 250.255 262.069Z" fill="white"/>
<path d="M131.305 282.269C123.934 282.719 116.619 278.949 112.849 272.141L107.672 262.632C105.084 257.849 104.521 252.166 106.266 246.989C108.01 241.869 111.78 237.649 116.731 235.454L118.532 234.667C123.54 232.416 129.335 232.36 134.343 234.61C139.407 236.861 143.346 241.137 145.034 246.427L148.41 256.724C151.505 266.177 147.06 276.474 138.057 280.581C135.919 281.594 133.612 282.157 131.305 282.269ZM125.959 243.388C124.946 243.444 123.877 243.726 122.921 244.176L121.008 245.02C118.757 246.033 117.069 247.89 116.281 250.253C115.494 252.616 115.719 255.148 116.9 257.343L122.358 267.302C124.553 271.353 129.617 273.041 133.781 271.128C137.888 269.271 139.857 264.601 138.451 260.325L134.906 249.521C134.118 247.102 132.374 245.189 130.011 244.176C128.716 243.557 127.31 243.332 125.959 243.388Z" fill="white" stroke="black" stroke-width="1.2" stroke-miterlimit="10" stroke-linecap="round" stroke-linejoin="round"/>
<path d="M188.867 258.918C187.967 258.918 187.01 258.862 186.054 258.806C177.67 258.074 169.905 254.248 164.222 248.002C158.539 241.756 155.5 233.654 155.613 225.214L155.838 203.326C155.95 194.041 159.945 185.151 166.81 178.905C173.675 172.716 182.846 169.621 192.018 170.465L195.507 170.803C204.847 171.647 213.456 176.43 219.083 183.97C224.766 191.509 226.96 201.187 225.16 210.472L221.446 232.078C218.351 247.777 204.622 258.918 188.867 258.918ZM187.517 241.7C195.675 242.375 203.046 236.805 204.678 228.702L208.392 207.096C209.292 202.482 208.223 197.924 205.466 194.21C202.709 190.497 198.658 188.246 194.044 187.852L190.555 187.514C186.054 187.121 181.721 188.584 178.401 191.622C175.025 194.717 173.112 198.937 173.056 203.494L172.831 225.383C172.662 233.879 179.133 241.025 187.517 241.7Z" fill="white" stroke="black" stroke-width="1.2" stroke-miterlimit="10" stroke-linecap="round" stroke-linejoin="round"/>
<path d="M112.061 34.2976L106.659 22.819L95.0116 29.1209L100.863 41.1622C106.209 51.5717 103.564 64.232 94.8991 69.4086C86.1776 74.6415 74.0238 71.0403 67.8906 61.2498L60.4633 49.3773L48.5908 56.6921L56.2995 68.2832C67.1591 84.3758 87.8656 90.3964 102.158 81.8437C116.337 73.4599 120.613 52.247 112.061 34.2976Z" fill="white" stroke="black" stroke-width="1.2" stroke-miterlimit="10" stroke-linecap="round" stroke-linejoin="round"/>
<path d="M57.3131 57.2548C60.2953 55.1167 62.1522 51.2905 60.6329 49.2086C59.17 47.1267 54.8374 47.5768 51.7989 49.7712C48.7042 51.9657 47.4663 55.398 49.0418 57.4799C50.6173 59.5055 54.3309 59.393 57.3131 57.2548Z" fill="white" stroke="black" stroke-width="1.2" stroke-miterlimit="10" stroke-linecap="round" stroke-linejoin="round"/>
<path d="M94.6182 28.4457C95.3496 30.9778 98.6694 31.9343 101.989 30.5276C105.309 29.1209 107.503 25.9137 106.828 23.2691" fill="white"/>
<path d="M94.6182 28.4457C95.3496 30.9778 98.6694 31.9343 101.989 30.5276C105.309 29.1209 107.503 25.9137 106.828 23.2691" stroke="black" stroke-width="1.2" stroke-miterlimit="10" stroke-linecap="round" stroke-linejoin="round"/>
<path d="M99.0077 64.7384C96.9258 63.2754 94.5625 59.8994 93.8873 57.4799C93.6622 56.8046 93.4934 56.0169 93.831 55.398C94.1687 54.7227 94.9564 54.4414 95.6879 54.4414C96.4194 54.4977 97.0946 54.8353 97.7135 55.2292C99.5141 56.3545 101.033 58.0425 101.99 59.9556C102.44 60.9122 102.778 62.0375 102.271 62.9941C101.652 64.1757 100.414 65.0197 99.0077 64.7384C99.0077 64.8509 99.0639 64.6821 99.0077 64.7384Z" fill="#FFB26E"/>
<path d="M99.0077 64.7384C96.9258 63.2754 94.5625 59.8994 93.8873 57.4799C93.6622 56.8046 93.4934 56.0169 93.831 55.398C94.1687 54.7227 94.9564 54.4414 95.6879 54.4414C96.4194 54.4977 97.0946 54.8353 97.7135 55.2292C99.5141 56.3545 101.033 58.0425 101.99 59.9556C102.44 60.9122 102.778 62.0375 102.271 62.9941C101.652 64.1757 100.414 65.0197 99.0077 64.7384ZM99.0077 64.7384C99.0639 64.6821 99.0077 64.8509 99.0077 64.7384Z" stroke="black" stroke-width="1.2" stroke-miterlimit="10" stroke-linecap="round" stroke-linejoin="round"/>
<path d="M94.225 73.291C94.3938 70.8153 84.9408 67.6643 84.0406 71.3217C83.1403 74.9791 94.0562 75.7668 94.225 73.291Z" fill="#FFB26E" stroke="black" stroke-width="1.2" stroke-miterlimit="10" stroke-linecap="round" stroke-linejoin="round"/>
<path d="M92.6493 71.3216C93.6058 71.3779 94.6186 71.2654 95.1813 70.4776C96.4192 68.7896 94.7312 66.8765 93.3245 65.9762C92.1429 65.1885 90.6799 64.3445 89.2732 64.0631C88.4855 63.8943 87.6977 63.838 86.91 63.9506C85.8409 64.1194 84.6593 64.7946 84.4342 65.9199C83.9841 68.0581 86.4598 69.5211 88.0353 70.2526C89.2169 70.8152 90.4548 71.1528 91.749 71.2654C92.0303 71.2654 92.3679 71.3216 92.6493 71.3216Z" fill="#FFB26E" stroke="black" stroke-width="1.2" stroke-miterlimit="10" stroke-linecap="round" stroke-linejoin="round"/>
<path d="M96.1384 68.6208C96.8136 68.8459 97.4888 68.9584 98.164 68.7334C99.3456 68.3395 99.9083 66.9328 99.627 65.7512C99.4019 64.5696 98.5016 63.5568 97.6013 62.769C96.1946 61.5874 94.5629 60.6308 92.8186 60.0682C91.6932 59.6743 90.3428 59.5617 89.4988 60.3495C88.8236 61.0247 88.8236 62.1501 89.2175 62.9941C89.8927 64.5133 91.4682 65.6387 92.7623 66.5952C93.6626 67.2704 94.8442 68.1707 96.1384 68.6208Z" fill="#FFB26E" stroke="black" stroke-width="1.2" stroke-miterlimit="10" stroke-linecap="round" stroke-linejoin="round"/>
<mask id="mask0" mask-type="alpha" maskUnits="userSpaceOnUse" x="155" y="169" width="72" height="93">
<path d="M188.865 260.918C187.965 260.918 187.008 258.862 186.052 258.806C180.878 258.354 181.568 256.448 177.209 253.798C174.505 252.154 184.524 250.984 183.961 239.731C178.278 233.485 176.365 220.881 155.611 225.214L155.836 203.326C155.948 194.041 159.943 185.151 166.808 178.905C173.673 172.716 182.844 169.621 192.016 170.465L195.505 170.803C204.845 171.647 213.454 176.43 219.081 183.97C224.764 191.509 226.958 201.187 225.158 210.472L221.444 232.078C218.349 247.777 204.62 260.918 188.865 260.918ZM190 239C198.159 239.675 203.044 236.805 204.676 228.702L208.39 207.096C209.29 202.482 208.221 197.924 205.464 194.21C202.707 190.497 198.656 188.246 194.042 187.852L190.553 187.514C186.052 187.121 181.719 188.583 178.399 191.622C175.023 194.717 173.11 198.937 173.054 203.494L172.829 225.383C172.711 231.318 176.084 234.969 183.961 239.731C186.011 240.97 187.473 238.796 190 239Z" fill="white"/>
<path d="M183.961 239.731C178.278 233.485 176.365 220.881 155.611 225.214L155.836 203.326C155.948 194.041 159.943 185.151 166.808 178.905C173.673 172.716 182.844 169.621 192.016 170.465L195.505 170.803C204.845 171.647 213.454 176.43 219.081 183.97C224.764 191.509 226.958 201.187 225.158 210.472L221.444 232.078C218.349 247.777 204.62 260.918 188.865 260.918C187.965 260.918 187.008 258.862 186.052 258.806C180.878 258.354 181.568 256.448 177.209 253.798C174.505 252.154 184.524 250.984 183.961 239.731ZM183.961 239.731C176.084 234.969 172.711 231.318 172.829 225.383L173.054 203.494C173.11 198.937 175.023 194.717 178.399 191.622C181.719 188.583 186.052 187.121 190.553 187.514L194.042 187.852C198.656 188.246 202.707 190.497 205.464 194.21C208.221 197.924 209.29 202.482 208.39 207.096L204.676 228.702C203.044 236.805 198.159 239.675 190 239C187.473 238.796 186.011 240.97 183.961 239.731Z" stroke="black" stroke-width="1.2" stroke-miterlimit="10" stroke-linecap="round" stroke-linejoin="round"/>
</mask>
<g mask="url(#mask0)">
<path d="M183.126 289.134C182.394 289.134 181.663 289.078 180.931 289.021C168.159 287.896 158.368 276.924 158.593 264.095L158.818 250.478C158.931 243.613 161.913 237.086 167.033 232.529C172.097 227.971 178.906 225.776 185.658 226.395L188.134 226.62C195.055 227.296 201.357 230.84 205.52 236.411C209.684 242.038 211.26 249.184 209.853 255.992L207.152 269.384C204.845 280.975 194.717 289.134 183.126 289.134ZM182.169 275.067C187.515 275.573 192.354 271.916 193.479 266.57L196.18 253.179C196.799 250.14 196.124 247.158 194.323 244.682C192.523 242.263 189.878 240.744 186.896 240.462L184.42 240.237C181.494 239.956 178.624 240.912 176.43 242.882C174.179 244.907 172.941 247.665 172.885 250.647L172.66 264.263C172.491 269.89 176.711 274.617 182.169 275.067Z" fill="white" stroke="black" stroke-width="1.2" stroke-miterlimit="10" stroke-linecap="round" stroke-linejoin="round"/>
</g>
<path d="M173.9 230.728C172.549 232.529 171.143 234.948 169.848 237.987C168.385 241.475 168.667 244.626 169.229 244.964C171.48 246.145 176.432 242.657 181.214 235.848C181.89 234.779 182.171 233.541 182.171 232.247" fill="black"/>
<path d="M173.9 230.728C172.549 232.529 171.143 234.948 169.848 237.987C168.385 241.475 168.667 244.626 169.229 244.964C171.48 246.145 176.432 242.657 181.214 235.848C181.89 234.779 182.171 233.541 182.171 232.247" stroke="black" stroke-width="1.2" stroke-miterlimit="10" stroke-linecap="round" stroke-linejoin="round"/>
<path d="M172.606 200.906C172.493 202.65 172.156 210.64 172.099 212.441C171.931 219.474 172.212 226.058 172.718 232.078C172.943 232.416 174.35 234.217 176.882 234.498C179.864 234.892 181.834 232.866 182.059 232.641C182.872 228.779 184.97 218.08 186.032 209.909C186.146 209.032 185.087 209.346 182.274 208.221C176.929 207.096 171.865 205.126 172.606 200.906Z" fill="black"/>
<path d="M172.099 230.728C173.056 232.135 174.687 234.104 176.938 234.442C179.808 234.892 181.777 233.766 183.24 231.572" stroke="white" stroke-width="1.2" stroke-miterlimit="10" stroke-linecap="round" stroke-linejoin="round"/>
<path d="M197.466 211.597L204.919 211.597L195.788 233.935C195.788 233.935 200.796 249.409 195.957 249.353C187.685 249.24 184.309 236.692 184.984 232.585C185.268 230.884 187.222 220.429 189.092 210.472C190.151 210.753 191.839 211.034 191.839 211.034L197.466 211.597Z" fill="black"/>
<path d="M184.31 232.191C185.547 233.935 187.742 235.286 189.768 235.342C192.525 235.454 195.225 234.385 197.589 232.979" stroke="white" stroke-width="1.2" stroke-miterlimit="10" stroke-linecap="round" stroke-linejoin="round"/>
<mask id="mask1" mask-type="alpha" maskUnits="userSpaceOnUse" x="143" y="153" width="114" height="63">
<path d="M200.908 211.71C199.277 211.71 197.645 211.653 196.013 211.484C181.496 210.247 168.161 203.607 158.426 192.747C148.692 181.888 143.515 167.933 143.853 153.36L165.854 153.866C165.403 172.322 181.993 179.524 197.87 189.54C206.591 190.272 199.548 220.6 206.469 215.254C213.39 209.909 226.05 217.449 227.569 208.784L256.951 164.445C254.475 178.512 246.879 191.059 235.569 199.781C225.61 207.602 213.4 211.71 200.908 211.71Z" fill="white"/>
</mask>
<g mask="url(#mask1)">
<path d="M188.867 258.918C187.967 258.918 187.01 258.862 186.054 258.806C177.67 258.074 169.905 254.248 164.222 248.002C158.539 241.756 155.5 233.654 155.613 225.214L155.838 203.326C155.95 194.041 159.945 185.151 166.81 178.905C173.675 172.716 182.846 169.621 192.018 170.465L195.507 170.803C204.847 171.647 213.456 176.43 219.083 183.97C224.766 191.509 226.96 201.187 225.16 210.472L221.446 232.078C218.351 247.777 204.622 258.918 188.867 258.918ZM187.517 241.7C195.675 242.375 203.046 236.805 204.678 228.702L208.392 207.096C209.292 202.482 208.223 197.924 205.466 194.21C202.709 190.497 198.658 188.246 194.044 187.852L190.555 187.514C186.054 187.121 181.721 188.584 178.401 191.622C175.025 194.717 173.112 198.937 173.056 203.494L172.831 225.383C172.662 233.879 179.133 241.025 187.517 241.7Z" fill="white" stroke="black" stroke-width="1.2" stroke-miterlimit="10" stroke-linecap="round" stroke-linejoin="round"/>
</g>
<path d="M200.908 211.71C199.277 211.71 197.645 211.653 196.013 211.484C181.496 210.247 168.161 203.607 158.426 192.747C148.692 181.888 143.515 167.933 143.853 153.36L145.428 86.4015C145.822 70.7028 152.743 55.6794 164.503 45.2136C176.263 34.7478 191.962 29.5712 207.604 31.0341L217.564 31.9344C233.375 33.3974 247.948 41.4436 257.626 54.0476C267.304 66.6515 271.243 82.8566 268.486 98.499L256.951 164.501C254.475 178.568 246.879 191.116 235.569 199.837C225.61 207.602 213.4 211.71 200.908 211.71ZM197.87 189.596C206.591 190.328 215.257 187.796 222.177 182.45C229.098 177.105 233.769 169.396 235.288 160.731L246.823 94.7291C248.511 84.9948 246.148 75.3168 240.127 67.4393C234.106 59.5618 225.385 54.7791 215.538 53.8788L205.635 52.9785C195.901 52.0782 186.448 55.1729 179.133 61.7C171.818 68.227 167.654 77.2299 167.429 87.0204L165.854 153.979C165.46 172.378 179.527 188.021 197.87 189.596Z" fill="white" stroke="black" stroke-width="1.2" stroke-miterlimit="10" stroke-linecap="round" stroke-linejoin="round"/>
<path d="M172.99 204.435C179.997 208.365 187.817 210.786 196.013 211.484C197.645 211.653 199.277 211.71 200.908 211.71C203.15 211.71 205.382 211.577 207.594 211.315M157.797 192.034C148.469 181.28 143.523 167.616 143.853 153.36L145.428 86.4015C145.822 70.7028 152.743 55.6794 164.503 45.2136C176.263 34.7478 191.962 29.5712 207.604 31.0341L217.564 31.9344C233.375 33.3974 247.948 41.4436 257.626 54.0476C267.304 66.6515 271.243 82.8566 268.486 98.499L256.951 164.501C254.475 178.568 246.879 191.116 235.569 199.837C232.494 202.235 229.205 204.283 225.759 205.97M172.146 174.709C168.032 168.821 165.69 161.639 165.854 153.979L167.429 87.0204C167.654 77.2299 171.818 68.227 179.133 61.7C186.448 55.1729 195.901 52.0782 205.635 52.9785L215.538 53.8788C225.385 54.7791 234.106 59.5618 240.127 67.4393C246.148 75.3168 248.511 84.9948 246.823 94.7291L235.288 160.731C233.769 169.396 229.098 177.105 222.177 182.45C215.257 187.796 206.591 190.328 197.87 189.596C194.472 189.305 191.221 188.53 188.182 187.345" stroke="black" stroke-width="1.2" stroke-miterlimit="10" stroke-linecap="round" stroke-linejoin="round"/>
<mask id="mask2" mask-type="alpha" maskUnits="userSpaceOnUse" x="119" y="30" width="197" height="203">
<path d="M197.87 189.596C198.884 189.681 197.581 189.599 198.591 189.596C201.057 190.936 203.937 196.686 204.218 197.249C204.499 197.811 208.79 202.875 207.594 206.252C202.811 219.756 225.374 218.514 226.444 204.845C226.162 195.279 223.912 190.215 219.692 183.744C227.006 180.087 233.768 169.396 235.288 160.731L251.483 232.416L315.065 192.034C316.753 182.3 246.147 75.3168 240.127 67.4393C234.106 59.5618 225.385 54.7791 215.538 53.8788L205.635 52.9785C195.9 52.0782 186.447 55.1729 179.133 61.7C171.818 68.227 119.479 72.1095 119.254 81.9001L165.956 153.36C165.675 172.772 180.304 186.277 197.87 189.596Z" fill="white"/>
</mask>
<g mask="url(#mask2)">
<path d="M215.481 80.6622L225.609 77.6238L224.878 100.525C224.878 100.525 211.149 107.389 203.89 94.6729C203.327 93.7163 215.481 80.6622 215.481 80.6622Z" fill="#FFB26E"/>
<path d="M224.709 100.412C222.177 105.026 205.24 101.706 203.946 94.9541L201.921 94.3914C198.32 93.3786 160.226 83.0254 149.592 78.9178C144.078 84.0945 140.308 92.9848 140.308 98.8366L168.441 112.172L176.938 116.336C167.316 140.25 167.372 173.391 167.822 177.274C179.02 181.831 212.724 190.103 222.683 188.809C230.448 165.345 236.3 133.779 236.3 133.779C236.3 133.779 237.144 134.904 238.889 136.198C247.666 142.838 259.032 165.176 259.032 165.176C259.032 165.176 266.235 154.879 282.383 155.892C282.383 155.892 274.506 135.298 262.127 124.27C241.083 105.532 224.709 100.412 224.709 100.412Z" fill="white"/>
<path d="M224.709 126.351C224.709 126.351 222.289 133.554 221.276 137.38C215.312 139.687 212.78 140.306 212.78 140.306L205.803 133.329C205.803 133.329 207.547 126.183 209.629 121.794C212.048 122.75 215.368 124.72 224.709 126.351Z" stroke="black" stroke-width="1.2" stroke-miterlimit="10" stroke-linecap="round" stroke-linejoin="round"/>
<path d="M223.865 128.883C223.865 128.883 214.13 127.308 208.672 124.044" stroke="black" stroke-width="1.2" stroke-miterlimit="10" stroke-linecap="round" stroke-linejoin="round"/>
<path d="M282.552 156.061C277.939 156.061 269.498 154.71 258.864 165.345" stroke="black" stroke-width="1.2" stroke-miterlimit="10" stroke-linecap="round" stroke-linejoin="round"/>
<path d="M244.572 142.163C249.355 147.846 257.288 161.856 260.608 170.015" stroke="black" stroke-width="1.2" stroke-miterlimit="10" stroke-linecap="round" stroke-linejoin="round"/>
<path d="M285.704 162.081C280.246 148.352 270.905 133.385 263.197 125.282" stroke="black" stroke-width="1.2" stroke-miterlimit="10" stroke-linecap="round" stroke-linejoin="round"/>
<path d="M225.216 180.706C224.372 190.89 223.978 202.2 223.978 202.2L211.251 200.327L202.249 184.307L192.964 197.636L160.508 192.86L167.766 169.396C167.766 169.396 179.245 175.473 225.216 180.706Z" fill="black" stroke="black" stroke-width="1.2" stroke-miterlimit="10" stroke-linecap="round" stroke-linejoin="round"/>
<path d="M217.563 84.8823C213.737 86.4015 210.811 86.0076 209.235 85.2762C207.829 84.601 206.76 83.3068 206.253 81.8438C203.102 72.5034 215.763 57.705 215.763 57.705C215.763 57.705 222.402 58.8866 222.796 59.2805C223.19 59.6744 231.011 67.8895 231.011 67.8895L227.804 77.2862" fill="#FFB26E"/>
<path d="M217.563 84.8823C213.737 86.4015 210.811 86.0076 209.235 85.2762C207.829 84.601 206.76 83.3068 206.253 81.8438C203.102 72.5034 215.763 57.705 215.763 57.705C215.763 57.705 222.402 58.8866 222.796 59.2805C223.19 59.6744 231.011 67.8895 231.011 67.8895L227.804 77.2862" stroke="black" stroke-width="1.2" stroke-miterlimit="10" stroke-linecap="round" stroke-linejoin="round"/>
<path d="M209.854 72.2783C207.097 70.1401 205.972 68.227 206.31 67.6081C207.21 66.0326 210.811 68.5083 212.049 69.071" fill="#FFB26E"/>
<path d="M209.854 72.2783C207.097 70.1401 205.972 68.227 206.31 67.6081C207.21 66.0326 210.811 68.5083 212.049 69.071" stroke="black" stroke-width="1.2" stroke-miterlimit="10" stroke-linecap="round" stroke-linejoin="round"/>
<path d="M208.504 76.7798C208.504 76.7798 211.374 78.2428 213.568 76.1609" stroke="black" stroke-width="1.2" stroke-miterlimit="10" stroke-linecap="round" stroke-linejoin="round"/>
<path d="M222.74 79.1993C222.571 78.299 222.909 77.1174 223.696 76.1608C224.878 74.6979 226.678 74.2477 227.691 75.0917C228.704 75.9357 228.535 77.7926 227.354 79.1993C226.172 80.606 224.371 81.1124 223.359 80.2684C223.077 79.987 222.852 79.5931 222.74 79.1993Z" fill="#FFB26E"/>
<path d="M225.778 74.754C226.51 74.5852 227.185 74.6415 227.691 75.0916C228.704 75.9356 228.535 77.7925 227.354 79.1992C226.172 80.6059 224.372 81.1123 223.359 80.2683C223.021 79.9869 222.796 79.593 222.74 79.1992" stroke="black" stroke-width="1.2" stroke-miterlimit="10" stroke-linecap="round" stroke-linejoin="round"/>
<path d="M222.74 79.1992C222.74 79.0867 222.684 78.9742 222.684 78.8616" stroke="black" stroke-width="1.2" stroke-miterlimit="10" stroke-linecap="round" stroke-linejoin="round"/>
<path d="M244.572 142.163C240.464 137.436 236.3 133.723 236.3 133.723C236.3 133.723 230.449 165.289 222.684 188.752C212.724 190.103 179.02 181.775 167.823 177.217C167.316 172.941 167.316 132.428 180.539 108.683" stroke="black" stroke-width="1.2" stroke-miterlimit="10" stroke-linecap="round" stroke-linejoin="round"/>
<path d="M224.709 100.412C224.709 100.412 244.74 105.758 263.084 125.17L263.14 125.282" stroke="black" stroke-width="1.2" stroke-miterlimit="10" stroke-linecap="round" stroke-linejoin="round"/>
<path d="M207.154 103C207.154 103 189.936 129.784 184.815 181.719" stroke="black" stroke-width="1.2" stroke-miterlimit="10" stroke-linecap="round" stroke-linejoin="round"/>
<path d="M188.867 258.918C187.967 258.918 187.01 258.862 186.054 258.806C177.67 258.074 169.905 254.248 164.222 248.002C158.539 241.756 155.5 233.654 155.613 225.214L155.838 203.326C155.95 194.041 159.945 185.151 166.81 178.905C173.675 172.716 182.846 169.621 192.018 170.465L195.507 170.803C204.847 171.647 213.456 176.43 219.083 183.97C224.766 191.509 226.96 201.187 225.16 210.472L221.446 232.078C218.351 247.777 204.622 258.918 188.867 258.918ZM187.517 241.7C195.675 242.375 203.046 236.805 204.678 228.702L208.392 207.096C209.292 202.482 208.223 197.924 205.466 194.21C202.709 190.497 198.658 188.246 194.044 187.852L190.555 187.514C186.054 187.121 181.721 188.583 178.401 191.622C175.025 194.717 173.112 198.937 173.056 203.494L172.831 225.383C172.662 233.879 179.133 241.025 187.517 241.7Z" fill="white" stroke="black" stroke-width="1.2" stroke-miterlimit="10" stroke-linecap="round" stroke-linejoin="round"/>
<path d="M150.323 79.2556C167.935 84.0946 204.003 94.9542 204.003 94.9542L209.854 85.5013" stroke="black" stroke-width="1.2" stroke-miterlimit="10" stroke-linecap="round" stroke-linejoin="round"/>
<path d="M140.308 98.8367L176.994 116.336" stroke="black" stroke-width="1.2" stroke-miterlimit="10" stroke-linecap="round" stroke-linejoin="round"/>
<path d="M224.709 100.412C222.177 105.026 205.24 101.706 203.946 94.9542" stroke="black" stroke-width="1.2" stroke-miterlimit="10" stroke-linecap="round" stroke-linejoin="round"/>
<path d="M227.635 101.538C222.74 109.978 199.895 104.238 201.358 94.2227" stroke="black" stroke-width="1.2" stroke-miterlimit="10" stroke-linecap="round" stroke-linejoin="round"/>
<path d="M217.563 84.8823C213.4 89.7213 206.591 90.7342 206.591 90.7342L209.855 85.5013C209.855 85.5013 212.837 86.7392 217.563 84.8823Z" fill="black" stroke="black" stroke-width="1.2" stroke-miterlimit="10" stroke-linecap="round" stroke-linejoin="round"/>
<path d="M133.049 97.43C132.036 92.9286 134.456 80.7185 143.121 75.5981L150.886 78.2427C142.22 83.3631 139.295 95.967 140.307 100.468L133.049 97.43Z" fill="white" stroke="black" stroke-width="1.2" stroke-miterlimit="10" stroke-linecap="round" stroke-linejoin="round"/>
<path d="M282.271 160.787C285.028 161.237 306.185 171.759 302.302 177.217C300.67 179.524 288.01 175.136 288.01 175.136C288.01 175.136 292.455 203.719 286.378 204.451C282.44 204.957 280.189 184.138 280.189 184.138C280.189 184.138 275.913 210.247 269.611 209.909C264.434 209.628 271.974 186.727 271.974 186.727C271.974 186.727 261.002 207.096 255.6 204.17C252.618 202.538 264.209 186.108 264.209 186.108C264.209 186.108 247.385 199.387 244.853 197.361C242.321 195.336 250.761 186.783 257.344 182.957C260.495 180.762 259.933 175.586 260.101 173.166C260.214 171.309 260.72 167.146 264.434 165.457" fill="#FFB26E"/>
<path d="M282.271 160.787C285.028 161.237 306.185 171.759 302.302 177.217C300.67 179.524 288.01 175.136 288.01 175.136C288.01 175.136 292.455 203.719 286.378 204.451C282.44 204.957 280.189 184.138 280.189 184.138C280.189 184.138 275.913 210.247 269.611 209.909C264.434 209.628 271.974 186.727 271.974 186.727C271.974 186.727 261.002 207.096 255.6 204.17C252.618 202.538 264.209 186.108 264.209 186.108C264.209 186.108 247.385 199.387 244.853 197.361C242.321 195.336 250.761 186.783 257.344 182.957C260.495 180.762 259.933 175.586 260.101 173.166C260.214 171.309 260.72 167.146 264.434 165.457" stroke="black" stroke-width="1.2" stroke-miterlimit="10" stroke-linecap="round" stroke-linejoin="round"/>
<path d="M225.553 80.4933L224.765 99.9057" stroke="black" stroke-width="1.2" stroke-miterlimit="10" stroke-linecap="round" stroke-linejoin="round"/>
<path d="M283.227 179.806C283.227 179.806 276.138 185.77 263.365 183.463Z" fill="#FFB26E"/>
<path d="M283.227 179.806C283.227 179.806 276.138 185.77 263.365 183.463" stroke="black" stroke-width="1.2" stroke-miterlimit="10" stroke-linecap="round" stroke-linejoin="round"/>
</g>
<path d="M81.1144 244.007C68.5104 244.007 56.3566 239.393 46.9036 230.953L24.2278 210.697C13.5369 201.187 7.29122 187.571 7.00988 173.279C6.72854 159.099 12.4678 145.314 22.7086 135.523L26.7036 131.697C37.1131 121.681 51.4051 116.561 65.8096 117.63C80.3266 118.699 93.7746 125.901 102.721 137.436L121.402 161.519C137.438 182.225 135.413 211.484 116.732 229.659C107.391 238.718 95.125 243.838 82.1272 244.063C81.7333 244.007 81.3957 244.007 81.1144 244.007ZM61.9834 141.487C55.0062 141.487 48.4229 144.132 43.3588 149.027L39.3638 152.854C33.9058 158.143 30.9236 165.232 31.0924 172.829C31.2612 180.537 34.4685 187.627 40.2641 192.747L62.9399 213.004C68.1165 217.618 74.7561 220.093 81.6771 219.981C88.5417 219.868 95.0688 217.167 99.964 212.385C109.867 202.763 110.936 187.233 102.384 176.205L83.7027 152.122C78.8637 145.876 71.8865 142.163 64.0653 141.6C63.3338 141.544 62.6586 141.487 61.9834 141.487Z" fill="white" stroke="black" stroke-width="1.2" stroke-miterlimit="10" stroke-linecap="round" stroke-linejoin="round"/>
<path d="M81.1144 244.007C68.5104 244.007 56.3566 239.393 46.9036 230.953L24.2278 210.697C13.5369 201.187 7.29122 187.571 7.00988 173.279C6.72854 159.099 12.4678 145.314 22.7086 135.523L26.7036 131.697C37.1131 121.681 51.4051 116.561 65.8096 117.63C80.3266 118.699 93.7746 125.901 102.721 137.436L121.402 161.519C137.438 182.225 135.413 211.484 116.732 229.659C107.391 238.718 95.125 243.838 82.1272 244.063C81.7333 244.007 81.3957 244.007 81.1144 244.007ZM61.9834 141.487C55.0062 141.487 48.4229 144.132 43.3588 149.027L39.3638 152.854C33.9058 158.143 30.9236 165.232 31.0924 172.829C31.2612 180.537 34.4685 187.627 40.2641 192.747L62.9399 213.004C68.1165 217.618 74.7561 220.093 81.6771 219.981C88.5417 219.868 95.0688 217.167 99.964 212.385C109.867 202.763 110.936 187.233 102.384 176.205L83.7027 152.122C78.8637 145.876 71.8865 142.163 64.0653 141.6C63.3338 141.544 62.6586 141.487 61.9834 141.487Z" fill="white" stroke="black" stroke-width="1.2" stroke-miterlimit="10" stroke-linecap="round" stroke-linejoin="round"/>
<mask id="mask3" mask-type="alpha" maskUnits="userSpaceOnUse" x="72" y="189" width="74" height="79">
<path d="M114.537 266.571C113.412 266.571 112.286 266.514 111.161 266.402C103.565 265.558 96.5877 261.9 91.5799 256.048L80.6077 243.332C75.0935 236.917 72.5052 228.477 73.4055 220.093C74.362 211.766 78.7509 204.17 85.503 199.218L87.9788 197.418C92.4891 194.09 100.833 191.516 108.404 190.636C107.719 187.683 108.563 195.842 107.438 199.218C114.451 200.677 129.945 208.221 130.789 205.001C131.98 206.589 130.789 205.001 131.98 206.589L140.476 221.106C148.298 234.442 144.865 251.435 132.486 260.606C127.254 264.489 120.952 266.571 114.537 266.571ZM105.75 203.72C104.7 203.72 103.668 208.855 102.655 209.11C101.062 209.511 99.539 210.228 98.1632 211.259L95.6874 213.06C92.7615 215.198 90.9047 218.405 90.5108 222.063C90.1169 225.72 91.186 229.321 93.6055 232.135L104.578 244.851C109.023 250.028 116.788 250.928 122.246 246.877C127.591 242.938 129.054 235.567 125.678 229.828L122.067 223.675L125.678 218.349C123.765 215.085 115.653 206.702 111.939 205.97C114.349 196.18 106.65 203.72 105.75 203.72Z" fill="white" stroke="black" stroke-width="1.2" stroke-miterlimit="10" stroke-linecap="round" stroke-linejoin="round"/>
</mask>
<g mask="url(#mask3)">
<path d="M114.537 266.571C113.412 266.571 112.286 266.514 111.161 266.402C103.565 265.558 96.5877 261.9 91.5799 256.048L80.6077 243.332C75.0935 236.917 72.5052 228.477 73.4055 220.093C74.362 211.766 78.7509 204.17 85.503 199.218L87.9788 197.418C94.8434 192.353 103.565 190.44 111.949 192.185C120.333 193.929 127.647 199.162 131.98 206.589L140.476 221.106C148.298 234.442 144.865 251.435 132.486 260.606C127.254 264.489 120.952 266.571 114.537 266.571ZM105.759 208.727C103.059 208.727 100.414 209.571 98.1632 211.259L95.6874 213.06C92.7615 215.198 90.9047 218.405 90.5108 222.063C90.1169 225.72 91.186 229.321 93.6055 232.135L104.578 244.851C109.023 250.028 116.788 250.928 122.246 246.877C127.591 242.938 129.054 235.567 125.678 229.828L117.125 215.254C115.212 211.991 112.118 209.74 108.404 209.009C107.56 208.784 106.66 208.727 105.759 208.727Z" fill="white" stroke="black" stroke-width="1.2" stroke-miterlimit="10" stroke-linecap="round" stroke-linejoin="round"/>
</g>
<mask id="mask4" mask-type="alpha" maskUnits="userSpaceOnUse" x="73" y="191" width="70" height="90">
<path d="M121.786 264.77C121.223 271.803 109.529 280.356 108.404 280.244C100.808 279.4 96.5877 261.9 91.5799 256.048L80.6077 243.332C75.0935 236.917 72.5052 228.477 73.4055 220.093C74.362 211.766 78.7509 204.17 85.503 199.218L87.9788 197.418C94.8434 192.353 103.565 190.44 111.949 192.185C120.333 193.929 127.647 199.162 131.98 206.589L140.476 221.106C142.405 225.041 142.973 228.144 142.572 230.728C142.295 232.515 128.77 230.177 127.694 231.572C125.722 234.128 135.408 240.076 131.98 242.3C129.499 243.909 126.845 245.598 124.318 247.608C119.393 251.262 110.997 246.833 121.786 264.77ZM105.759 208.727C103.059 208.727 100.414 209.571 98.1632 211.259L95.6874 213.06C92.7615 215.198 90.9047 218.405 90.5108 222.063C90.1169 225.72 91.186 229.321 93.6055 232.135L109.688 238.324C112.51 241.61 114.306 246.864 116.722 249.07C118.41 252.11 120.098 247.89 121.504 249.07C123.755 248.171 126.426 244.638 127.413 242.826C131.859 240.012 128.538 234.104 125.678 229.828L117.125 215.254C115.212 211.991 112.118 209.74 108.404 209.009C107.56 208.784 106.66 208.727 105.759 208.727Z" fill="white"/>
</mask>
<g mask="url(#mask4)">
<path d="M131.305 282.269C123.934 282.719 116.619 278.949 112.849 272.141L107.673 262.632C105.085 257.849 104.522 252.166 106.266 246.989C108.01 241.869 111.78 237.649 116.732 235.454L118.532 234.667C121.251 233.445 124.201 232.87 127.131 232.959C129.6 233.035 132.054 233.581 134.344 234.61C138.397 236.412 141.729 239.511 143.763 243.388C144.271 244.355 144.698 245.371 145.035 246.427L148.411 256.724C151.505 266.177 147.06 276.474 138.057 280.581C135.919 281.594 133.612 282.157 131.305 282.269Z" fill="white"/>
<path d="M125.96 243.388C125.789 243.398 125.617 243.414 125.443 243.436C124.59 243.544 123.717 243.802 122.921 244.176L121.008 245.02C118.758 246.033 117.07 247.89 116.282 250.253C115.494 252.616 115.719 255.148 116.901 257.343L122.359 267.302C124.553 271.353 129.617 273.041 133.781 271.128C137.889 269.271 139.858 264.601 138.451 260.325L137.11 256.238L134.906 249.521M131.305 282.269C123.934 282.719 116.619 278.949 112.849 272.141L107.673 262.632C105.085 257.849 104.522 252.166 106.266 246.989C108.01 241.869 111.78 237.649 116.732 235.454L118.532 234.667C121.251 233.445 124.201 232.87 127.131 232.959C129.6 233.035 132.054 233.581 134.344 234.61C138.397 236.412 141.729 239.511 143.763 243.388C144.271 244.355 144.698 245.371 145.035 246.427L148.411 256.724C151.505 266.177 147.06 276.474 138.057 280.581C135.919 281.594 133.612 282.157 131.305 282.269Z" stroke="black" stroke-width="1.2" stroke-miterlimit="10" stroke-linecap="round" stroke-linejoin="round"/>
</g>
<path d="M52.4175 62.4314L50.6732 59.6743L50.2793 55.623L53.374 57.2547L56.4687 54.16L60.0136 54.4414L59.5635 51.0653L61.7016 51.3466L64.515 55.8481" fill="white"/>
<path d="M52.4175 62.4314L50.6732 59.6743L50.2793 55.623L53.374 57.2547L56.4687 54.16L60.0136 54.4414L59.5635 51.0653L61.7016 51.3466L64.515 55.8481" stroke="black" stroke-width="1.2" stroke-miterlimit="10" stroke-linecap="round" stroke-linejoin="round"/>
<path d="M106.998 24.282L106.66 20.1745L104.579 18.7678L102.215 21.1873L98.3891 20.8497L98.0515 23.6068L94.6192 22.8753L94.9005 25.5199L92.9312 27.0391L94.6192 28.3895" fill="white"/>
<path d="M106.998 24.282L106.66 20.1745L104.579 18.7678L102.215 21.1873L98.3891 20.8497L98.0515 23.6068L94.6192 22.8753L94.9005 25.5199L92.9312 27.0391L94.6192 28.3895" stroke="black" stroke-width="1.2" stroke-miterlimit="10" stroke-linecap="round" stroke-linejoin="round"/>
<path d="M113.806 5.71366L116.056 2L123.034 3.57549L118.588 12.4095L113.806 5.71366Z" fill="white" stroke="black" stroke-width="1.2" stroke-miterlimit="10" stroke-linecap="round" stroke-linejoin="round"/>
<path d="M102.721 137.436L121.402 161.519C137.438 182.225 135.413 211.484 116.732 229.659C112.031 234.218 106.589 237.78 100.685 240.222M99.964 212.385C109.867 202.763 110.936 187.233 102.383 176.205L83.7026 152.122" stroke="black" stroke-width="1.2" stroke-miterlimit="10" stroke-linecap="round" stroke-linejoin="round"/>
<path d="M111.836 6.38888L116.056 2L119.714 7.17662L118.589 12.4095L111.836 6.38888Z" fill="white" stroke="black" stroke-width="1.2" stroke-miterlimit="10" stroke-linecap="round" stroke-linejoin="round"/>
<path d="M285.422 287.052L278.501 285.814L278.783 269.496L292.737 275.855L285.422 287.052Z" fill="white" stroke="black" stroke-width="1.2" stroke-miterlimit="10" stroke-linecap="round" stroke-linejoin="round"/>
<path d="M287.617 289.64L278.501 285.814L284.128 277.261L292.737 275.855L287.617 289.64Z" fill="white" stroke="black" stroke-width="1.2" stroke-miterlimit="10" stroke-linecap="round" stroke-linejoin="round"/>
<path d="M53.5432 30.1338L53.4307 26.9828L55.7939 23.3817L59.0574 32.2157L53.5432 30.1338Z" fill="white" stroke="black" stroke-width="1.2" stroke-miterlimit="10" stroke-linecap="round" stroke-linejoin="round"/>
<path d="M52.6431 31.3155L53.4308 26.9828L59.0576 32.2157L52.6431 31.3155Z" fill="white" stroke="black" stroke-width="1.2" stroke-miterlimit="10" stroke-linecap="round" stroke-linejoin="round"/>
<path d="M304.103 249.69L303.259 243.557L314.569 252.616L304.103 249.69Z" fill="white" stroke="black" stroke-width="1.2" stroke-miterlimit="10" stroke-linecap="round" stroke-linejoin="round"/>
<path d="M304.103 249.69L307.029 254.36L314.569 252.616L304.103 249.69Z" fill="white" stroke="black" stroke-width="1.2" stroke-miterlimit="10" stroke-linecap="round" stroke-linejoin="round"/>
<path d="M248.735 283.057L249.579 276.867L238.326 285.983L248.735 283.057Z" fill="white" stroke="black" stroke-width="1.2" stroke-miterlimit="10" stroke-linecap="round" stroke-linejoin="round"/>
<path d="M248.735 283.057L245.866 287.671L238.326 285.983L248.735 283.057Z" fill="white" stroke="black" stroke-width="1.2" stroke-miterlimit="10" stroke-linecap="round" stroke-linejoin="round"/>
<path d="M210.755 59.6743C210.755 59.6743 205.972 57.93 206.647 61.0247C207.435 64.4571 231.068 74.0788 231.068 74.0788L228.986 63.1066L210.755 59.6743Z" fill="white" stroke="black" stroke-width="1.2" stroke-miterlimit="10" stroke-linecap="round" stroke-linejoin="round"/>
<path d="M231.18 74.0226C232.531 76.1607 234.106 69.8025 234.556 67.0454C235.794 59.7868 231.293 52.9785 224.485 51.7968C218.745 50.784 213.175 54.1038 210.812 59.5618C210.868 59.5618 225.16 64.3445 231.18 74.0226Z" fill="white" stroke="black" stroke-width="1.2" stroke-miterlimit="10" stroke-linecap="round" stroke-linejoin="round"/>
<path d="M215.256 61.3623C219.364 54.3851 225.553 51.0653 225.553 51.0653C225.553 51.0653 227.973 51.0653 230.336 53.4848C230.336 53.4848 224.259 56.9171 221.052 64.457L215.256 61.3623Z" fill="white" stroke="black" stroke-width="1.2" stroke-miterlimit="10" stroke-linecap="round" stroke-linejoin="round"/>
<path d="M300.221 190.44C278.501 190.44 262.465 206.308 262.465 228.083C262.465 232.472 262.859 238.605 264.21 242.488C257.682 245.245 250.368 248.734 243.897 251.716C242.209 252.504 238.777 253.404 237.089 254.135C231.912 238.662 234.556 221.613 235.232 217.73C240.858 186.952 267.867 163.657 300.277 163.657C322.84 163.657 345.066 175.754 356.995 193.029C349.624 197.98 339.89 205.239 333.306 211.259C326.16 200.681 313.838 190.44 300.221 190.44Z" fill="white" stroke="black" stroke-width="1.2" stroke-miterlimit="10" stroke-linecap="round" stroke-linejoin="round"/>
<path d="M263.703 240.068L259.933 237.311L256.501 233.541L248.905 234.554L243.39 233.541L239.958 236.298L238.945 241.081L235.175 247.271L235.513 253.123L239.339 257.286L241.365 261L243.39 260.381L246.485 263.42L250.311 262.069L258.864 260.662L260.833 257.68L266.798 255.88L264.378 249.015L266.798 244.176L263.703 240.068Z" fill="white" stroke="black" stroke-width="1.2" stroke-miterlimit="10" stroke-linecap="round" stroke-linejoin="round"/>
<path d="M335.331 213.51L339.664 215.198L343.997 217.955L351.03 215.029L356.6 214.635L359.189 211.091L358.964 206.195L361.046 199.218L359.245 193.648L354.462 190.609L351.593 187.514L349.792 188.64L345.966 186.502L342.646 188.809L334.712 192.297L333.587 195.729L328.298 198.993L332.405 205.014L331.28 210.303L335.331 213.51Z" fill="white" stroke="black" stroke-width="1.2" stroke-miterlimit="10" stroke-linecap="round" stroke-linejoin="round"/>
<path d="M332.406 205.014L347.204 208.784L354.406 207.096" fill="white"/>
<path d="M332.406 205.014L347.204 208.784L354.406 207.096" stroke="black" stroke-width="1.2" stroke-miterlimit="10" stroke-linecap="round" stroke-linejoin="round"/>
<path d="M351.312 198.824L344.672 202.257L341.127 207.264" fill="white"/>
<path d="M351.312 198.824L344.672 202.257L341.127 207.264" stroke="black" stroke-width="1.2" stroke-miterlimit="10" stroke-linecap="round" stroke-linejoin="round"/>
<path d="M264.378 249.353L258.864 244.795L250.311 247.271L244.459 239.056" fill="white"/>
<path d="M264.378 249.353L258.864 244.795L250.311 247.271L244.459 239.056" stroke="black" stroke-width="1.2" stroke-miterlimit="10" stroke-linecap="round" stroke-linejoin="round"/>
<path d="M255.038 246.483L256.838 251.041L253.012 254.473" fill="white"/>
<path d="M255.038 246.483L256.838 251.041L253.012 254.473" stroke="black" stroke-width="1.2" stroke-miterlimit="10" stroke-linecap="round" stroke-linejoin="round"/>
</svg>
